<?xml version="1.0" standalone="no"?>
<!DOCTYPE svg PUBLIC "-//W3C//DTD SVG 20010904//EN"
 "http://www.w3.org/TR/2001/REC-SVG-20010904/DTD/svg10.dtd">
<svg version="1.0" xmlns="http://www.w3.org/2000/svg"
 width="640.000000pt" height="640.000000pt" viewBox="0 0 640.000000 640.000000"
 preserveAspectRatio="xMidYMid meet">
<metadata>
Created by potrace 1.14, written by Peter Selinger 2001-2017
</metadata>
<g transform="translate(0.000000,640.000000) scale(0.100000,-0.100000)"
fill="#000000" stroke="none">
<path d="M1329 5445 c-3 -2 -49 -6 -104 -9 -55 -3 -110 -7 -121 -10 -12 -2
-38 -7 -59 -10 -20 -4 -41 -9 -46 -12 -5 -3 -22 -8 -37 -10 -15 -3 -46 -14
-69 -24 -23 -10 -44 -16 -47 -12 -3 3 -6 0 -6 -6 0 -7 -7 -12 -16 -12 -20 0
-143 -71 -214 -123 -91 -68 -250 -237 -250 -266 0 -6 -5 -11 -10 -11 -6 0 -16
-12 -23 -27 -6 -16 -14 -30 -17 -33 -3 -3 -14 -22 -24 -42 -14 -29 -26 -38
-45 -39 -44 -1 -75 -9 -114 -29 -79 -41 -119 -106 -123 -198 -4 -96 31 -162
114 -217 35 -23 42 -33 42 -59 -1 -17 0 -74 0 -126 1 -53 1 -100 0 -105 -1 -6
-2 -12 0 -15 1 -3 3 -16 5 -30 2 -14 6 -43 9 -65 6 -40 15 -78 35 -145 6 -19
33 -79 60 -132 47 -90 50 -103 51 -170 0 -99 1 -190 2 -197 0 -3 0 -10 -2 -16
-5 -27 6 -286 14 -350 3 -22 8 -60 11 -85 9 -72 19 -116 69 -310 5 -20 60
-175 82 -230 10 -25 24 -52 31 -61 7 -8 13 -21 13 -27 0 -11 79 -159 118 -222
78 -125 212 -292 317 -395 113 -111 274 -245 294 -245 5 0 11 -4 13 -8 3 -9
93 -72 102 -72 3 0 34 -17 68 -38 67 -40 160 -86 249 -122 30 -12 63 -26 74
-31 11 -4 52 -18 90 -29 39 -12 81 -25 95 -30 20 -7 56 -16 100 -25 3 0 23 -5
45 -9 42 -10 45 -10 115 -21 80 -13 301 -29 345 -25 11 1 27 1 35 1 8 0 35 0
60 0 25 0 50 0 55 0 145 -2 258 -2 260 1 2 2 33 1 69 -2 36 -3 72 -3 80 0 8 3
55 3 103 0 48 -3 116 -3 151 0 34 3 62 3 62 0 0 -3 25 -5 55 -5 30 0 55 4 55
8 0 5 4 6 8 3 7 -4 71 -7 112 -5 8 0 69 0 135 -1 66 -1 125 0 130 1 6 1 13 1
16 1 45 -6 429 4 464 11 11 3 43 8 70 11 76 10 144 24 250 51 33 9 65 17 70
19 25 6 123 40 155 53 19 8 49 20 65 27 111 46 304 150 396 216 20 14 47 32
59 40 12 8 28 20 34 25 6 6 34 28 61 50 86 68 178 157 271 260 53 59 154 193
154 204 0 6 4 11 10 11 5 0 16 16 25 35 9 19 23 39 31 46 8 6 14 15 14 19 0 5
20 41 43 82 24 40 45 76 46 80 1 4 8 23 17 43 8 19 14 38 13 41 0 4 4 10 9 13
15 9 97 245 125 361 28 113 34 140 43 210 3 25 8 56 11 70 9 46 11 414 2 480
-18 129 -21 146 -35 210 -26 113 -95 320 -116 344 -4 6 -8 18 -8 28 0 10 -4
18 -10 18 -5 0 -10 9 -10 19 0 11 -3 21 -7 23 -5 2 -19 25 -33 53 -102 204
-301 438 -510 602 -168 131 -450 278 -593 308 -18 4 -36 10 -42 13 -5 4 -14 7
-20 9 -5 1 -53 11 -105 23 -52 11 -111 23 -130 26 -19 3 -38 8 -42 10 -18 12
-112 14 -141 5 -69 -23 -114 -100 -102 -176 10 -71 49 -108 148 -140 225 -74
445 -223 564 -382 15 -21 30 -40 33 -43 11 -11 57 -88 89 -148 30 -59 95 -232
86 -232 -3 0 0 -12 5 -26 13 -33 19 -79 25 -189 3 -49 8 -95 10 -102 2 -7 1
-15 -4 -17 -4 -3 -5 -28 -1 -56 4 -27 5 -52 2 -54 -2 -3 -3 -116 -2 -253 1
-136 1 -255 1 -263 -2 -42 1 -105 5 -112 3 -4 2 -8 -3 -8 -4 0 -8 -25 -8 -55
0 -30 2 -55 5 -55 3 0 3 -31 -1 -70 -5 -54 -12 -77 -33 -105 -34 -44 -88 -68
-141 -61 -22 3 -43 5 -47 5 -14 1 -88 78 -89 92 -1 8 -3 23 -4 34 -4 30 -9
205 -6 245 2 44 0 144 -5 151 -2 4 -1 10 3 12 5 3 6 39 3 81 -3 42 -3 83 0 92
3 8 3 44 0 80 -3 36 -2 68 2 70 5 3 6 9 4 13 -3 4 -5 43 -5 87 -1 99 -2 153
-6 179 -1 11 -3 26 -4 34 -1 16 -76 90 -94 92 -111 13 -186 0 -277 -47 -144
-75 -234 -205 -256 -369 -3 -22 -7 -46 -9 -52 -3 -7 0 -13 6 -13 6 0 8 -4 4
-9 -3 -5 -6 -39 -6 -75 -1 -54 -4 -66 -18 -67 -178 -10 -305 -65 -427 -185
-62 -61 -130 -156 -135 -189 0 -5 -6 -19 -12 -30 -6 -11 -12 -22 -12 -25 -1
-3 -7 -25 -14 -50 -13 -44 -24 -172 -21 -240 1 -19 2 -41 1 -47 -1 -7 -1 -19
-2 -25 -1 -17 0 -123 2 -168 1 -19 1 -42 0 -50 -1 -8 -1 -35 0 -60 1 -25 1
-52 0 -60 -1 -15 -1 -97 1 -109 4 -39 0 -41 -94 -41 -51 0 -109 0 -128 1 -19
1 -42 1 -50 0 -8 0 -40 0 -70 0 -30 0 -62 0 -70 0 -8 -1 -31 -1 -50 0 -19 1
-42 1 -50 0 -8 0 -40 0 -70 0 -30 0 -62 0 -70 0 -20 -1 -119 0 -198 2 -34 1
-62 0 -62 -3 0 -3 -29 -5 -65 -5 -36 0 -65 2 -65 5 0 3 -25 5 -55 5 -30 0 -55
-2 -55 -5 0 -4 -232 -4 -250 0 -3 1 -32 1 -65 1 l-60 -1 52 26 c67 33 126 88
155 144 30 59 32 71 31 160 -1 116 -50 201 -152 264 -51 32 -67 37 -144 41
-32 2 -60 5 -63 7 -2 2 -28 1 -59 -2 -30 -3 -55 -4 -55 -1 0 4 -25 6 -55 6
-30 0 -55 -2 -55 -5 0 -3 -29 -5 -65 -5 -36 0 -65 3 -65 6 0 3 -20 3 -45 -1
-25 -4 -48 -3 -51 2 -3 4 -10 6 -15 2 -15 -9 -212 -2 -264 10 -72 16 -185 66
-235 103 -68 51 -159 157 -196 229 -21 42 -40 81 -40 86 -1 4 -2 9 -4 11 -1 1
-3 9 -5 17 -2 8 -6 29 -10 45 -3 17 -7 55 -8 85 -2 55 -2 55 28 55 17 0 49 -3
73 -6 23 -3 42 -3 42 0 0 3 17 6 38 7 76 2 262 49 262 67 0 6 3 8 6 4 4 -3 46
14 95 38 l88 45 113 -55 c62 -30 120 -55 129 -55 9 0 19 -3 23 -7 3 -4 12 -8
19 -9 7 -2 26 -6 42 -9 17 -3 38 -8 48 -11 16 -5 126 -16 152 -16 6 1 45 3 88
5 67 4 79 3 84 -11 38 -109 134 -259 220 -346 165 -166 384 -268 607 -282 82
-5 203 -7 221 -4 6 1 14 2 19 1 26 -5 124 -3 141 2 16 6 20 16 21 59 3 182 80
378 213 549 l21 26 -75 1 c-41 1 -95 1 -120 1 -25 0 -52 0 -60 0 -8 0 -35 0
-60 0 -62 0 -72 0 -133 1 -29 0 -56 -1 -60 -3 -4 -3 -18 -1 -31 4 -22 9 -23
12 -18 80 11 147 95 229 242 235 39 2 92 6 119 9 152 17 267 143 272 297 3
106 -23 174 -94 244 -39 39 -94 74 -98 62 0 -2 -9 4 -19 12 -35 29 -282 21
-430 -14 -24 -5 -111 -40 -119 -48 -20 -17 -32 -7 -35 30 -2 20 -3 43 -2 50 3
30 3 41 1 99 -3 62 9 93 34 93 20 1 76 59 98 102 44 84 27 204 -38 271 -51 52
-102 74 -175 76 -21 1 -33 14 -68 76 -135 239 -359 421 -622 508 -42 14 -92
28 -110 31 -19 3 -45 8 -59 11 -40 9 -247 20 -275 15 -5 -1 -13 -2 -16 -2 -16
2 -332 4 -394 2 -22 -1 -41 -3 -44 -5 -2 -2 -11 0 -21 5 -10 5 -19 7 -21 5z
m93 -485 c29 0 60 1 68 1 8 0 53 0 100 -1 47 0 126 -1 175 0 249 2 326 -11
449 -73 147 -75 274 -228 320 -387 24 -83 40 -300 23 -300 -5 0 -5 -4 -2 -10
8 -13 8 -106 0 -153 -24 -142 -109 -251 -249 -320 -21 -10 -48 -21 -60 -24
-43 -10 -150 -12 -198 -3 -59 11 -309 131 -305 145 2 6 12 15 23 20 56 29 116
80 133 113 23 45 25 137 4 197 -26 78 -109 142 -195 151 -61 6 -168 5 -179 -1
-5 -4 -9 -2 -9 4 0 12 -94 -15 -129 -37 -73 -47 -105 -109 -108 -207 -2 -103
17 -134 128 -206 27 -17 49 -34 49 -38 0 -12 -253 -129 -302 -140 -25 -6 -77
-9 -115 -7 -68 4 -173 32 -173 46 0 4 -10 10 -23 14 -58 14 -179 173 -193 252
-2 13 -6 36 -9 52 -7 38 -7 200 0 211 3 5 1 12 -4 16 -6 3 -8 11 -6 18 2 7 6
41 9 77 9 110 22 152 75 254 41 79 163 209 227 241 21 11 41 23 44 26 7 9 93
38 155 53 28 7 83 13 124 14 41 1 76 4 79 7 3 2 9 2 13 -1 5 -2 32 -4 61 -4z
m888 -3034 c0 -3 -4 -8 -10 -11 -5 -3 -10 -1 -10 4 0 6 5 11 10 11 6 0 10 -2
10 -4z"/>
<path d="M895 4465 c-98 -53 -124 -161 -58 -243 74 -91 225 -72 269 35 29 68
-4 170 -67 203 -36 20 -112 22 -144 5z"/>
<path d="M2175 4465 c-98 -53 -124 -161 -58 -243 74 -91 225 -72 269 35 29 68
-4 170 -67 203 -36 20 -112 22 -144 5z"/>
</g>
</svg>
